{"title":"Noah 2014 Movies HDCamRip XViD Audio Cleaned New +Sample â˜»rDXâ˜»","uid":9901154,"size":744785602,"categoryP":"video","categoryS":"movies","magnet":"?xt=urn:btih:cfa86b43be7e34a9522e311322a237855f6a9cb2&amp;dn=Noah+2014+Movies+HDCamRip+XViD+Audio+Cleaned+New+%2BSample+%E2%98%BBrDX%E2%98%BB&amp;tr=udp%3A%2F%2Ftracker.openbittorrent.com%3A80&amp;tr=udp%3A%2F%2Fopen.demonii.com%3A1337&amp;tr=udp%3A%2F%2Ftracker.coppersurfer.tk%3A6969&amp;tr=udp%3A%2F%2Fexodus.desync.com%3A6969","seeders":32,"leechers":3,"uploader":"basicssom","files":2,"time":1396771897,"description":"---------------------------------------------------------------- &lt;a href=&quot;\nhttp://s5.postimg.org/hgeuxszk7/logo.png&quot; rel=&quot;nofollow&quot; target=&quot;_NEW&quot;&gt;\nhttp://s5.postimg.org/hgeuxszk7/logo.png&lt;/a&gt;\n\nNoah 2014 English Movies HDCamRip XViD Audio Cleaned New Source with Sample ~ â˜»rDXâ˜»\n\nPlease check SCREEN SHOTS first :\n &lt;a href=&quot;\nhttp://moviesreview.co.nr/2014/4/Noah/1.html&quot; rel=&quot;nofollow&quot; target=&quot;_NEW&quot;&gt;\nhttp://moviesreview.co.nr/2014/4/Noah/1.html&lt;/a&gt; &lt;a href=&quot;\nhttp://moviesreview.co.nr/2014/4/Noah/2.html&quot; rel=&quot;nofollow&quot; target=&quot;_NEW&quot;&gt;\nhttp://moviesreview.co.nr/2014/4/Noah/2.html&lt;/a&gt; &lt;a href=&quot;\nhttp://moviesreview.co.nr/2014/4/Noah/3.html&quot; rel=&quot;nofollow&quot; target=&quot;_NEW&quot;&gt;\nhttp://moviesreview.co.nr/2014/4/Noah/3.html&lt;/a&gt; &lt;a href=&quot;\nhttp://moviesreview.co.nr/2014/4/Noah/4.html&quot; rel=&quot;nofollow&quot; target=&quot;_NEW&quot;&gt;\nhttp://moviesreview.co.nr/2014/4/Noah/4.html&lt;/a&gt; &lt;a href=&quot;\nhttp://moviesreview.co.nr/2014/4/Noah/5.html&quot; rel=&quot;nofollow&quot; target=&quot;_NEW&quot;&gt;\nhttp://moviesreview.co.nr/2014/4/Noah/5.html&lt;/a&gt; &lt;a href=&quot;\nhttp://moviesreview.co.nr/2014/4/Noah/6.html&quot; rel=&quot;nofollow&quot; target=&quot;_NEW&quot;&gt;\nhttp://moviesreview.co.nr/2014/4/Noah/6.html&lt;/a&gt; &lt;a href=&quot;\nhttp://moviesreview.co.nr/2014/4/Noah/7.html&quot; rel=&quot;nofollow&quot; target=&quot;_NEW&quot;&gt;\nhttp://moviesreview.co.nr/2014/4/Noah/7.html&lt;/a&gt; &lt;a href=&quot;\nhttp://moviesreview.co.nr/2014/4/Noah/8.html&quot; rel=&quot;nofollow&quot; target=&quot;_NEW&quot;&gt;\nhttp://moviesreview.co.nr/2014/4/Noah/8.html&lt;/a&gt; &lt;a href=&quot;\nhttp://moviesreview.co.nr/2014/4/Noah/9.html&quot; rel=&quot;nofollow&quot; target=&quot;_NEW&quot;&gt;\nhttp://moviesreview.co.nr/2014/4/Noah/9.html&lt;/a&gt; &lt;a href=&quot;\nhttp://moviesreview.co.nr/2014/4/Noah/10.html&quot; rel=&quot;nofollow&quot; target=&quot;_NEW&quot;&gt;\nhttp://moviesreview.co.nr/2014/4/Noah/10.html&lt;/a&gt;\n\nAll rDX torrents are Seeding From the 1Gbps Seedbox 24X7\n\nPOSTER:\n &lt;a href=&quot;\nhttp://dyncdn.me/posters2/e/e5f42733c8cd42c754910e50026f5df0b4da2e44.jpg&quot; rel=&quot;nofollow&quot; target=&quot;_NEW&quot;&gt;\nhttp://dyncdn.me/posters2/e/e5f42733c8cd42c754910e50026f5df0b4da2e44.jpg&lt;/a&gt;\n\nFormat                                   : Matroska\nFormat version                           : Version 4 / Version 2\nFile size                                : 704 MiB\nDuration                                 : 2h 1mn\nOverall bit rate                         : 809 Kbps\nMovie name                               : Noah 2014 English Movies HDCamRip XViD Audio Cleaned New Source ~ â˜»rDXâ˜»\n\nVideo\nID                                       : 1\nFormat                                   : MPEG-4 Visual\nFormat profile                           : Advanced Simple@L5\nFormat settings, BVOP                    : Yes\nFormat settings, QPel                    : No\nFormat settings, GMC                     : No warppoints\nFormat settings, Matrix                  : Default (H.263)\nCodec ID                                 : V_MS/VFW/FOURCC / XVID\nCodec ID/Hint                            : XviD\nDuration                                 : 2h 1mn\nBit rate                                 : 665 Kbps\nWidth                                    : 624 pixels\nHeight                                   : 304 pixels\nDisplay aspect ratio                     : 2.053\nFrame rate mode                          : Constant\nFrame rate                               : 23.976 fps\nColor space                              : YUV\nChroma subsampling                       : 4:2:0\nBit depth                                : 8 bits\nScan type                                : Progressive\nCompression mode                         : Lossy\nBits/(Pixel*Frame)                       : 0.146\nStream size                              : 579 MiB (82%)\nTitle                                    : â˜»rDXâ˜»\nWriting library                          : XviD 64\nDefault                                  : Yes\nForced                                   : No\n\nAudio\nID                                       : 2\nFormat                                   : MPEG Audio\nFormat version                           : Version 1\nFormat profile                           : Layer 3\nMode                                     : Joint stereo\nMode extension                           : MS Stereo\nCodec ID                                 : A_MPEG/L3\nCodec ID/Hint                            : MP3\nDuration                                 : 2h 1mn\nBit rate mode                            : Constant\nBit rate                                 : 128 Kbps\nChannel(s)                               : 2 channels\nSampling rate                            : 48.0 KHz\nCompression mode                         : Lossy\nStream size                              : 111 MiB (16%)\nTitle                                    : â˜»rDXâ˜»\nDefault                                  : Yes\nForced                                   : No","torrent":{"xt":"urn:btih:cfa86b43be7e34a9522e311322a237855f6a9cb2","amp;dn":"Noah+2014+Movies+HDCamRip+XViD+Audio+Cleaned+New+%2BSample+%E2%98%BBrDX%E2%98%BB","amp;tr":["udp%3A%2F%2Ftracker.openbittorrent.com%3A80","udp%3A%2F%2Fopen.demonii.com%3A1337","udp%3A%2F%2Ftracker.coppersurfer.tk%3A6969","udp%3A%2F%2Fexodus.desync.com%3A6969"],"infoHash":"cfa86b43be7e34a9522e311322a237855f6a9cb2","infoHashBuffer":{"type":"Buffer","data":[207,168,107,67,190,126,52,169,82,46,49,19,34,162,55,133,95,106,156,178]},"announce":[],"urlList":[]}}